<svg width="158" height="25" viewBox="0 0 158 25" fill="none" xmlns="http://www.w3.org/2000/svg">
<path d="M12.5781 12.2969V24H0.59375V17.2188L2.59375 16.8281V7.17188L0.59375 6.78125V0H12.5781L17.6094 9.21875L22.5938 0H34.5938V6.78125L32.5938 7.17188V16.8281L34.5938 17.2188V24H22.5938V12.2969L17.6094 20.9219L12.5781 12.2969ZM37.7031 2H50.8594V8.15625L48.9844 8.51562V17.4062L50.8594 17.7656V24H37.7031V17.7656L39.5781 17.4062V8.51562L37.7031 8.15625V2ZM53.1094 12.7031C53.1094 10.7448 53.4062 9.05729 54 7.64062C54.5938 6.21354 55.4375 5.04167 56.5312 4.125C57.625 3.19792 58.9427 2.51562 60.4844 2.07812C62.0365 1.63021 63.7656 1.40625 65.6719 1.40625C66.8281 1.40625 67.8698 1.46354 68.7969 1.57812C69.7344 1.69271 70.5729 1.83854 71.3125 2.01562C72.0625 2.19271 72.7188 2.39062 73.2812 2.60938C73.8542 2.81771 74.3594 3.02083 74.7969 3.21875V10.0156H70.375C70.1354 9.67188 69.8958 9.375 69.6562 9.125C69.4271 8.86458 69.1771 8.65625 68.9062 8.5C68.6354 8.33333 68.3333 8.20833 68 8.125C67.6667 8.04167 67.276 8 66.8281 8C66.2865 8 65.7552 8.08333 65.2344 8.25C64.724 8.40625 64.2656 8.67188 63.8594 9.04688C63.4635 9.41146 63.1406 9.89583 62.8906 10.5C62.651 11.0938 62.5312 11.8281 62.5312 12.7031C62.5312 13.724 62.6302 14.5625 62.8281 15.2188C63.026 15.8646 63.3125 16.3802 63.6875 16.7656C64.0625 17.1406 64.5208 17.401 65.0625 17.5469C65.6146 17.6927 66.2448 17.7656 66.9531 17.7656C67.3281 17.7656 67.7135 17.7396 68.1094 17.6875C68.5156 17.6354 68.9531 17.5365 69.4219 17.3906V15.6094H66.2812V11.7656H75.4219V22.1406C74.651 22.4635 73.8333 22.7656 72.9688 23.0469C72.1042 23.3281 71.2344 23.5729 70.3594 23.7812C69.4948 23.9896 68.6458 24.125 67.8125 24.1875C66.9792 24.25 66.2083 24.2812 65.5 24.2812C63.7604 24.2812 62.1354 24.0729 60.625 23.6562C59.1146 23.2396 57.8021 22.5469 56.6875 21.5781C55.5729 20.6094 54.6979 19.3906 54.0625 17.9219C53.4271 16.4427 53.1094 14.7031 53.1094 12.7031ZM77.7188 2H90.875V8.1875L89 8.54688V11.125H96.5156V8.54688L94.6406 8.1875V1.92188H107.797V8.1875L105.922 8.54688V17.4062L107.797 17.7656V24H94.6406V17.7656L96.5156 17.4062V14.7969H89V17.4062L90.875 17.7656V24H77.7188V17.7656L79.5938 17.4062V8.54688L77.7188 8.1875V2ZM123.141 24.2812C121.307 24.2812 119.589 24.0885 117.984 23.7031C116.391 23.3073 115 22.6354 113.812 21.6875C112.635 20.7292 111.703 19.5104 111.016 18.0312C110.339 16.5521 110 14.776 110 12.7031C110 10.6719 110.339 8.94271 111.016 7.51562C111.703 6.07812 112.641 4.91146 113.828 4.01562C115.016 3.10938 116.406 2.44792 118 2.03125C119.594 1.61458 121.307 1.40625 123.141 1.40625C124.964 1.40625 126.672 1.61458 128.266 2.03125C129.87 2.44792 131.266 3.10938 132.453 4.01562C133.651 4.91146 134.594 6.07812 135.281 7.51562C135.969 8.94271 136.312 10.6719 136.312 12.7031C136.312 14.0781 136.156 15.3281 135.844 16.4531C135.531 17.5677 135.089 18.5625 134.516 19.4375C133.953 20.3021 133.271 21.0521 132.469 21.6875C131.677 22.3125 130.792 22.8333 129.812 23.25C128.833 23.6562 127.781 23.9271 126.656 24.0625C125.531 24.2083 124.359 24.2812 123.141 24.2812ZM123.141 8.0625C122.526 8.0625 122.005 8.14062 121.578 8.29688C121.161 8.45312 120.812 8.65625 120.531 8.90625C120.26 9.15625 120.047 9.44271 119.891 9.76562C119.734 10.0885 119.62 10.4219 119.547 10.7656C119.484 11.099 119.443 11.4323 119.422 11.7656C119.411 12.0885 119.406 12.375 119.406 12.625C119.406 12.8646 119.411 13.151 119.422 13.4844C119.432 13.8073 119.469 14.151 119.531 14.5156C119.594 14.8698 119.698 15.224 119.844 15.5781C119.99 15.9323 120.198 16.25 120.469 16.5312C120.75 16.8125 121.104 17.0417 121.531 17.2188C121.969 17.3854 122.505 17.4688 123.141 17.4688C123.766 17.4688 124.292 17.3854 124.719 17.2188C125.156 17.0521 125.51 16.8333 125.781 16.5625C126.062 16.2812 126.281 15.9688 126.438 15.625C126.594 15.2812 126.703 14.9375 126.766 14.5938C126.839 14.2396 126.88 13.8958 126.891 13.5625C126.911 13.2292 126.922 12.9427 126.922 12.7031C126.922 12.4531 126.911 12.1667 126.891 11.8438C126.88 11.5104 126.839 11.1719 126.766 10.8281C126.703 10.4844 126.594 10.151 126.438 9.82812C126.281 9.49479 126.062 9.19792 125.781 8.9375C125.51 8.67708 125.156 8.46875 124.719 8.3125C124.292 8.14583 123.766 8.0625 123.141 8.0625ZM157.906 17.0781C157.906 18.0469 157.766 18.9062 157.484 19.6562C157.214 20.3958 156.839 21.0417 156.359 21.5938C155.891 22.1354 155.328 22.5885 154.672 22.9531C154.026 23.3177 153.328 23.6146 152.578 23.8438C151.828 24.0625 151.042 24.1875 150.219 24.2188C149.406 24.2604 148.594 24.2812 147.781 24.2812C146.656 24.2812 145.641 24.2552 144.734 24.2031C143.828 24.151 143.016 24.0365 142.297 23.8594C141.589 23.6823 140.958 23.4896 140.406 23.2812C139.865 23.0625 139.385 22.849 138.969 22.6406V17.2188H143.391C143.828 17.9062 144.328 18.4115 144.891 18.7344C145.453 19.0573 146.031 19.2188 146.625 19.2188C146.802 19.2188 147 19.2031 147.219 19.1719C147.438 19.1406 147.641 19.0417 147.828 18.875C148.016 18.7083 148.172 18.4531 148.297 18.1094C148.432 17.7552 148.5 17.2604 148.5 16.625C147.656 16.5521 146.818 16.4479 145.984 16.3125C145.161 16.1667 144.37 15.974 143.609 15.7344C142.859 15.4948 142.161 15.1927 141.516 14.8281C140.87 14.4531 140.307 14.0052 139.828 13.4844C139.359 12.9531 138.99 12.3333 138.719 11.625C138.448 10.9062 138.312 10.0833 138.312 9.15625C138.312 8.09375 138.448 7.16667 138.719 6.375C138.99 5.57292 139.359 4.88542 139.828 4.3125C140.297 3.73958 140.849 3.26562 141.484 2.89062C142.13 2.51562 142.823 2.21875 143.562 2C144.302 1.78125 145.073 1.63021 145.875 1.54688C146.677 1.45312 147.479 1.40625 148.281 1.40625C149.417 1.40625 150.432 1.46354 151.328 1.57812C152.234 1.69271 153.042 1.83854 153.75 2.01562C154.469 2.19271 155.099 2.39062 155.641 2.60938C156.193 2.81771 156.682 3.02083 157.109 3.21875V8.6875H152.375C151.979 7.9375 151.526 7.39062 151.016 7.04688C150.505 6.70312 149.984 6.53125 149.453 6.53125C149.276 6.53125 149.073 6.5625 148.844 6.625C148.615 6.67708 148.401 6.80208 148.203 7C148.005 7.19792 147.839 7.48958 147.703 7.875C147.568 8.26042 147.5 8.78125 147.5 9.4375C149.219 9.5 150.724 9.68229 152.016 9.98438C153.318 10.2865 154.406 10.7396 155.281 11.3438C156.156 11.9375 156.812 12.7083 157.25 13.6562C157.688 14.5938 157.906 15.7344 157.906 17.0781Z" fill="#257AC9"/>
</svg>
