<svg width="20" height="20" viewBox="0 0 20 20" fill="none" xmlns="http://www.w3.org/2000/svg">
<g clip-path="url(#clip0_27_57)">
<path fill-rule="evenodd" clip-rule="evenodd" d="M1.40333 1.40333C0 2.80667 0 5.066 0 9.58333V10.4167C0 14.9333 0 17.1933 1.40333 18.5967C2.80667 20 5.066 20 9.58333 20H10.4167C14.9333 20 17.1933 20 18.5967 18.5967C20 17.1933 20 14.934 20 10.4167V9.58333C20 5.06667 20 2.80667 18.5967 1.40333C17.1933 0 14.934 0 10.4167 0H9.58333C5.06667 0 2.80667 0 1.40333 1.40333ZM3.95866 6.25H5.41666C5.78933 6.25 5.92933 6.41333 6.06933 6.81733C6.78266 8.89467 7.98532 10.7107 8.47933 10.7107C8.66533 10.7107 8.74999 10.6253 8.74999 10.154V8.00667C8.7166 7.39538 8.50303 7.13096 8.34485 6.93511C8.2472 6.81421 8.17066 6.71944 8.17066 6.58533C8.17066 6.422 8.30999 6.25 8.54133 6.25H10.8333C11.1427 6.25 11.25 6.41533 11.25 6.786V9.67533C11.25 9.984 11.384 10.0927 11.4767 10.0927C11.662 10.0927 11.8167 9.984 12.1567 9.644C13.2073 8.47 13.9487 6.66267 13.9487 6.66267C14.0413 6.446 14.2127 6.25 14.5833 6.25H16.0413C16.4827 6.25 16.576 6.47733 16.4827 6.786C16.2973 7.636 14.5207 10.1387 14.5207 10.1387C14.366 10.386 14.304 10.5093 14.5207 10.7873C14.5971 10.8944 14.7602 11.0543 14.9467 11.2371C15.1375 11.4241 15.3527 11.6351 15.5247 11.838C16.1513 12.5427 16.6233 13.1373 16.7547 13.5467C16.8753 13.958 16.6667 14.1667 16.25 14.1667H14.7913C14.4008 14.1667 14.2043 13.948 13.7794 13.475C13.5994 13.2746 13.3783 13.0285 13.084 12.734C12.218 11.9 11.848 11.792 11.6313 11.792C11.338 11.792 11.25 11.8753 11.25 12.292V13.6C11.25 13.958 11.1353 14.1667 10.208 14.1667C8.66333 14.1667 6.96532 13.2287 5.76066 11.498C3.95266 8.96467 3.45866 7.04867 3.45866 6.66267C3.45866 6.446 3.54199 6.25 3.95866 6.25Z" fill="#707F8D"/>
</g>
<defs>
<clipPath id="clip0_27_57">
<rect width="20" height="20" fill="white"/>
</clipPath>
</defs>
</svg>
